<svg xmlns="http://www.w3.org/2000/svg" version="1.0" viewBox="0 0 1200 1617"><path fill="#0000BF" fill-opacity=".1" d="M448.8 142.7c.7.3 1.6.2 1.9-.1.4-.3-.2-.6-1.3-.5-1.1 0-1.4.3-.6.6m301 0c.7.3 1.6.2 1.9-.1.4-.3-.2-.6-1.3-.5-1.1 0-1.4.3-.6.6m-294.9 3-2.4 2.8 2.8-2.4c2.5-2.3 3.2-3.1 2.4-3.1-.2 0-1.4 1.2-2.8 2.7m287.1-2.3c0 .2.8 1 1.8 1.7 1.5 1.3 1.6 1.2.3-.4s-2.1-2.1-2.1-1.3m6 6.1c1.3 1.4 2.6 2.5 2.8 2.5.3 0-.5-1.1-1.8-2.5s-2.6-2.5-2.8-2.5c-.3 0 .5 1.1 1.8 2.5m-493.1 86.2c-1.3 1.6-1.2 1.7.4.4s2.1-2.1 1.3-2.1c-.2 0-1 .8-1.7 1.7m688.1-1.3c0 .2.8 1 1.8 1.7 1.5 1.3 1.6 1.2.3-.4s-2.1-2.1-2.1-1.3M595.8 497.7c.7.3 1.6.2 1.9-.1.4-.3-.2-.6-1.3-.5-1.1 0-1.4.3-.6.6m7 0c.7.3 1.6.2 1.9-.1.4-.3-.2-.6-1.3-.5-1.1 0-1.4.3-.6.6M.1 574.6c0 1.1.3 1.4.6.6.3-.7.2-1.6-.1-1.9-.3-.4-.6.2-.5 1.3m1034.8 371.1c-1.3 1.6-1.2 1.7.4.4.9-.7 1.7-1.5 1.7-1.7 0-.8-.8-.3-2.1 1.3m-455.1 183c.7.3 1.6.2 1.9-.1.4-.3-.2-.6-1.3-.5-1.1 0-1.4.3-.6.6"/><path fill="#0000BF" fill-opacity=".2" d="M437.8.7c.7.3 1.6.2 1.9-.1.4-.3-.2-.6-1.3-.5-1.1 0-1.4.3-.6.6m323 0c.7.3 1.6.2 1.9-.1.4-.3-.2-.6-1.3-.5-1.1 0-1.4.3-.6.6m-309 142c.7.3 1.6.2 1.9-.1.4-.3-.2-.6-1.3-.5-1.1 0-1.4.3-.6.6m295 0c.7.3 1.6.2 1.9-.1.4-.3-.2-.6-1.3-.5-1.1 0-1.4.3-.6.6m452.3 428.9c0 1.1.3 1.4.6.6.3-.7.2-1.6-.1-1.9-.3-.4-.6.2-.5 1.3M155 936.4c0 .2.8 1 1.8 1.7 1.5 1.3 1.6 1.2.3-.4s-2.1-2.1-2.1-1.3m427.8 192.3c.7.3 1.6.2 1.9-.1.4-.3-.2-.6-1.3-.5-1.1 0-1.4.3-.6.6m33 0c.7.3 1.6.2 1.9-.1.4-.3-.2-.6-1.3-.5-1.1 0-1.4.3-.6.6"/><path fill="#0000BF" fill-opacity=".3" d="M.1 510.6c0 1.1.3 1.4.6.6.3-.7.2-1.6-.1-1.9-.3-.4-.6.2-.5 1.3m1199 1c0 1.1.3 1.4.6.6.3-.7.2-1.6-.1-1.9-.3-.4-.6.2-.5 1.3m-1199 58c0 1.1.3 1.4.6.6.3-.7.2-1.6-.1-1.9-.3-.4-.6.2-.5 1.3m588.7 69.1c.7.3 1.6.2 1.9-.1.4-.3-.2-.6-1.3-.5-1.1 0-1.4.3-.6.6m21 0c.7.3 1.6.2 1.9-.1.4-.3-.2-.6-1.3-.5-1.1 0-1.4.3-.6.6M159.5 941c1 1.1 2 2 2.3 2s-.3-.9-1.3-2-2-2-2.3-2 .3.9 1.3 2m10 10c1 1.1 2 2 2.3 2s-.3-.9-1.3-2-2-2-2.3-2 .3.9 1.3 2"/><path fill="#0000BF" fill-opacity=".4" d="M446.8.7c2.8.2 7.6.2 10.5 0 2.8-.2.5-.3-5.3-.3s-8.1.1-5.2.3m296 0c2.8.2 7.6.2 10.5 0 2.8-.2.5-.3-5.3-.3s-8.1.1-5.2.3M.1 513.6c0 1.1.3 1.4.6.6.3-.7.2-1.6-.1-1.9-.3-.4-.6.2-.5 1.3m1199 1c0 1.1.3 1.4.6.6.3-.7.2-1.6-.1-1.9-.3-.4-.6.2-.5 1.3M592.3 638.7c.9.2 2.5.2 3.5 0 .9-.3.1-.5-1.8-.5s-2.7.2-1.7.5m12 0c.9.2 2.5.2 3.5 0 .9-.3.1-.5-1.8-.5s-2.7.2-1.7.5m-15 490c1.5.2 3.7.2 5 0 1.2-.2 0-.4-2.8-.4-2.7 0-3.8.2-2.2.4m17 0c1.5.2 3.7.2 5 0 1.2-.2 0-.4-2.8-.4-2.7 0-3.8.2-2.2.4"/><path fill="#0000BF" fill-opacity=".5" d="M.1 516.6c0 1.1.3 1.4.6.6.3-.7.2-1.6-.1-1.9-.3-.4-.6.2-.5 1.3m1199 1c0 1.1.3 1.4.6.6.3-.7.2-1.6-.1-1.9-.3-.4-.6.2-.5 1.3m-1199 47c0 1.1.3 1.4.6.6.3-.7.2-1.6-.1-1.9-.3-.4-.6.2-.5 1.3m1199 0c0 1.1.3 1.4.6.6.3-.7.2-1.6-.1-1.9-.3-.4-.6.2-.5 1.3m-600.8 74.1c.9.2 2.5.2 3.5 0 .9-.3.1-.5-1.8-.5s-2.7.2-1.7.5M268 845.3c0 .2 1.5 1.6 3.3 3.3l3.2 2.9-2.9-3.3c-2.8-3-3.6-3.7-3.6-2.9m659.9 3.4c-1.3 1.6-1.2 1.7.4.4.9-.7 1.7-1.5 1.7-1.7 0-.8-.8-.3-2.1 1.3M277 854.4c0 .2.8 1 1.8 1.7 1.5 1.3 1.6 1.2.3-.4s-2.1-2.1-2.1-1.3m320.8 274.3c1.2.2 3.2.2 4.5 0 1.2-.2.2-.4-2.3-.4s-3.5.2-2.2.4"/><path fill="#0000BF" fill-opacity=".6" d="M624 198.3c0 .2 1.5 1.6 3.3 3.3l3.2 2.9-2.9-3.3c-2.8-3-3.6-3.7-3.6-2.9M.2 520c0 1.4.2 1.9.5 1.2.2-.6.2-1.8 0-2.5-.3-.6-.5-.1-.5 1.3m1198.9.6c0 1.1.3 1.4.6.6.3-.7.2-1.6-.1-1.9-.3-.4-.6.2-.5 1.3M918.9 857.7c-1.3 1.6-1.2 1.7.4.4.9-.7 1.7-1.5 1.7-1.7 0-.8-.8-.3-2.1 1.3"/><path fill="#0000BF" fill-opacity=".7" d="M445.9 155.7c-1.3 1.6-1.2 1.7.4.4.9-.7 1.7-1.5 1.7-1.7 0-.8-.8-.3-2.1 1.3m306.1-1.3c0 .2.8 1 1.8 1.7 1.5 1.3 1.6 1.2.3-.4s-2.1-2.1-2.1-1.3m-486.6 69.8-2.9 3.3 3.3-2.9c3-2.8 3.7-3.6 2.9-3.6-.2 0-1.6 1.5-3.3 3.2m671.6 3.3c1.9 1.9 3.6 3.5 3.9 3.5s-1-1.6-2.9-3.5-3.6-3.5-3.9-3.5 1 1.6 2.9 3.5m-677.6 2.7-1.9 2.3 2.3-1.9c2.1-1.8 2.7-2.6 1.9-2.6-.2 0-1.2 1-2.3 2.2M.1 523.6c0 1.1.3 1.4.6.6.3-.7.2-1.6-.1-1.9-.3-.4-.6.2-.5 1.3m1199 0c0 1.1.3 1.4.6.6.3-.7.2-1.6-.1-1.9-.3-.4-.6.2-.5 1.3m.1 34.9c0 1.6.2 2.2.5 1.2.2-.9.2-2.3 0-3-.3-.6-.5.1-.5 1.8M.2 559c0 1.4.2 1.9.5 1.2.2-.6.2-1.8 0-2.5-.3-.6-.5-.1-.5 1.3m1042.7 377.7-2.4 2.8 2.8-2.4c1.5-1.4 2.7-2.6 2.7-2.8 0-.8-.8-.1-3.1 2.4m-18.5 18.5-1.9 2.3 2.3-1.9c2.1-1.8 2.7-2.6 1.9-2.6-.2 0-1.2 1-2.3 2.2"/><path fill="#0000BF" fill-opacity=".8" d="M456.9 144.7c-1.3 1.6-1.2 1.7.4.4s2.1-2.1 1.3-2.1c-.2 0-1 .8-1.7 1.7m284.1-1.3c0 .2.8 1 1.8 1.7 1.5 1.3 1.6 1.2.3-.4s-2.1-2.1-2.1-1.3m7 7.1c1.9 1.9 3.6 3.5 3.9 3.5s-1-1.6-2.9-3.5-3.6-3.5-3.9-3.5 1 1.6 2.9 3.5m-298.6 1.7-1.9 2.3 2.3-1.9c1.2-1.1 2.2-2.1 2.2-2.3 0-.8-.8-.2-2.6 1.9M635 209.4c0 .2.8 1 1.8 1.7 1.5 1.3 1.6 1.2.3-.4s-2.1-2.1-2.1-1.3m294 10c0 .2.8 1 1.8 1.7 1.5 1.3 1.6 1.2.3-.4s-2.1-2.1-2.1-1.3m13.5 13.6c1 1.1 2 2 2.3 2s-.3-.9-1.3-2-2-2-2.3-2 .3.9 1.3 2m-687.1 1.2-1.9 2.3 2.3-1.9c1.2-1.1 2.2-2.1 2.2-2.3 0-.8-.8-.2-2.6 1.9M.3 528.5c0 2.2.2 3 .4 1.7.2-1.2.2-3 0-4-.3-.9-.5.1-.4 2.3m1199 .5c0 2.5.2 3.5.4 2.2.2-1.2.2-3.2 0-4.5-.2-1.2-.4-.2-.4 2.3m0 23.5c0 2.2.2 3 .4 1.7.2-1.2.2-3 0-4-.3-.9-.5.1-.4 2.3m-1199 1c0 2.2.2 3 .4 1.7.2-1.2.2-3 0-4-.3-.9-.5.1-.4 2.3M261 838.4c0 .2.8 1 1.8 1.7 1.5 1.3 1.6 1.2.3-.4s-2.1-2.1-2.1-1.3m675.9 1.3c-1.3 1.6-1.2 1.7.4.4.9-.7 1.7-1.5 1.7-1.7 0-.8-.8-.3-2.1 1.3m98.1 105-5.5 5.8 5.8-5.5c3.1-3 5.7-5.6 5.7-5.7 0-.8-1 .1-6 5.4m-857 13.7c0 .2.8 1 1.8 1.7 1.5 1.3 1.6 1.2.3-.4s-2.1-2.1-2.1-1.3"/><path fill="#0000BF" fill-opacity=".9" d="M176.9 110.7c-1.3 1.6-1.2 1.7.4.4s2.1-2.1 1.3-2.1c-.2 0-1 .8-1.7 1.7m845.6.3c1 1.1 2 2 2.3 2s-.3-.9-1.3-2-2-2-2.3-2 .3.9 1.3 2m15.5 14.5c1.3 1.4 2.6 2.5 2.8 2.5.3 0-.5-1.1-1.8-2.5s-2.6-2.5-2.8-2.5c-.3 0 .5 1.1 1.8 2.5m14 13.9c0 .2.8 1 1.8 1.7 1.5 1.3 1.6 1.2.3-.4s-2.1-2.1-2.1-1.3m16 18c0 .2.8 1 1.8 1.7 1.5 1.3 1.6 1.2.3-.4s-2.1-2.1-2.1-1.3m-630.1 7.3-2.4 2.8 2.8-2.4c2.5-2.3 3.2-3.1 2.4-3.1-.2 0-1.4 1.2-2.8 2.7m323.1-.2c1.3 1.4 2.6 2.5 2.8 2.5.3 0-.5-1.1-1.8-2.5s-2.6-2.5-2.8-2.5c-.3 0 .5 1.1 1.8 2.5m-178.1 26.2c-1.3 1.6-1.2 1.7.4.4s2.1-2.1 1.3-2.1c-.2 0-1 .8-1.7 1.7m35.6 2.3c1 1.1 2 2 2.3 2s-.3-.9-1.3-2-2-2-2.3-2 .3.9 1.3 2m-48.5 9.7-5.5 5.8 5.8-5.5c5.3-5 6.2-6 5.4-6-.1 0-2.7 2.6-5.7 5.7m68 9.7c0 .2.8 1 1.8 1.7 1.5 1.3 1.6 1.2.3-.4s-2.1-2.1-2.1-1.3m-365.6 4.8-1.9 2.3 2.3-1.9c2.1-1.8 2.7-2.6 1.9-2.6-.2 0-1.2 1-2.3 2.2m284.5-.5c-1.3 1.6-1.2 1.7.4.4s2.1-2.1 1.3-2.1c-.2 0-1 .8-1.7 1.7m369.6.3c1 1.1 2 2 2.3 2s-.3-.9-1.3-2-2-2-2.3-2 .3.9 1.3 2m20.5 20.5c1.3 1.4 2.6 2.5 2.8 2.5.3 0-.5-1.1-1.8-2.5s-2.6-2.5-2.8-2.5c-.3 0 .5 1.1 1.8 2.5m-695.6.7-1.9 2.3 2.3-1.9c1.2-1.1 2.2-2.1 2.2-2.3 0-.8-.8-.2-2.6 1.9m703.6 8.2c0 .2.8 1 1.8 1.7 1.5 1.3 1.6 1.2.3-.4s-2.1-2.1-2.1-1.3m-420 229c0 .2.8 1 1.8 1.7 1.5 1.3 1.6 1.2.3-.4s-2.1-2.1-2.1-1.3M.4 541c0 5.2.1 7.4.3 4.7.2-2.6.2-6.8 0-9.5-.2-2.6-.3-.4-.3 4.8m1198.9 0c0 4.7.2 6.6.4 4.2.2-2.3.2-6.1 0-8.5-.2-2.3-.4-.4-.4 4.3M411 551.4c0 .2.8 1 1.8 1.7 1.5 1.3 1.6 1.2.3-.4s-2.1-2.1-2.1-1.3m375.9 1.3c-1.3 1.6-1.2 1.7.4.4.9-.7 1.7-1.5 1.7-1.7 0-.8-.8-.3-2.1 1.3m-11.9 13-5.5 5.8 5.8-5.5c5.3-5 6.2-6 5.4-6-.1 0-2.7 2.6-5.7 5.7m-350 .8c1.3 1.4 2.6 2.5 2.8 2.5.3 0-.5-1.1-1.8-2.5s-2.6-2.5-2.8-2.5c-.3 0 .5 1.1 1.8 2.5M250 826.4c0 .2.8 1 1.8 1.7 1.5 1.3 1.6 1.2.3-.4s-2.1-2.1-2.1-1.3m697.9 1.3c-1.3 1.6-1.2 1.7.4.4.9-.7 1.7-1.5 1.7-1.7 0-.8-.8-.3-2.1 1.3m-8 9c-1.3 1.6-1.2 1.7.4.4.9-.7 1.7-1.5 1.7-1.7 0-.8-.8-.3-2.1 1.3M297 873.4c0 .2.8 1 1.8 1.7 1.5 1.3 1.6 1.2.3-.4s-2.1-2.1-2.1-1.3m6 5c0 .2.8 1 1.8 1.7 1.5 1.3 1.6 1.2.3-.4s-2.1-2.1-2.1-1.3m-168 35c0 .2.8 1 1.8 1.7 1.5 1.3 1.6 1.2.3-.4s-2.1-2.1-2.1-1.3m7 8c0 .2.8 1 1.8 1.7 1.5 1.3 1.6 1.2.3-.4s-2.1-2.1-2.1-1.3m908.4 6.8-1.9 2.3 2.3-1.9c2.1-1.8 2.7-2.6 1.9-2.6-.2 0-1.2 1-2.3 2.2M158 938.5c3 3 5.7 5.5 5.9 5.5.3 0-1.9-2.5-4.9-5.5s-5.7-5.5-5.9-5.5c-.3 0 1.9 2.5 4.9 5.5m14 14c3 3 5.7 5.5 5.9 5.5.3 0-1.9-2.5-4.9-5.5s-5.7-5.5-5.9-5.5c-.3 0 1.9 2.5 4.9 5.5m844.4 9.7-1.9 2.3 2.3-1.9c1.2-1.1 2.2-2.1 2.2-2.3 0-.8-.8-.2-2.6 1.9M187 966.4c0 .2.8 1 1.8 1.7 1.5 1.3 1.6 1.2.3-.4s-2.1-2.1-2.1-1.3m818.9 5.3c-1.3 1.6-1.2 1.7.4.4s2.1-2.1 1.3-2.1c-.2 0-1 .8-1.7 1.7M196 974.4c0 .2.8 1 1.8 1.7 1.5 1.3 1.6 1.2.3-.4s-2.1-2.1-2.1-1.3"/><path fill="#0000BF" d="M429 1.7c-28.7 2.7-47 5.5-66.1 10.3-66.7 16.7-129.2 49.7-183.4 97.1-15.8 13.7-48.5 47.3-48.5 49.8 0 .6-.4 1.1-.9 1.1-1.6 0-12.2 14-11.5 15.2.4.7.3.8-.4.4-2.2-1.3-26.2 33.2-40.7 58.4-13.7 23.8-34.4 67.6-34.8 73.4 0 1.2-.5 2.4-1 2.7-.4.3-2.6 5.7-4.8 12C19.7 370.6 9.1 419.3 3.3 477 .7 502.4.7 578.5 3.3 601.5c5.5 49.5 14.2 89.7 28.1 130 6.7 19.5 6.7 19.5 7.7 18.9.5-.3.6.1.4.8-1.2 3.1 17.8 44.9 31.3 69C80.7 837.9 93.9 859 97 862c1.4 1.4 2.5 3 2.5 3.6s1.5 3.1 3.3 5.5 6.4 8.7 10.3 13.9c28.5 38.5 68.3 78.7 109.4 110.6 47 36.5 98.4 65.9 153.9 87.9 121.9 48.4 242.5 57.1 364.6 26.5 44.8-11.2 83.7-25.5 126.5-46.4 51.1-25 96.7-55.2 137.5-91 26.4-23.3 58.7-56.8 60.4-62.9 1.2-4 1.5-4.4 2.5-2.9.5.9 2.1-.5 5.2-4.5 2.4-3.2 5-6.5 5.8-7.3 6.6-6.9 35.1-48 35.1-50.7 0-.7.4-1.3.9-1.3 2.3 0 27.4-46.9 37.3-69.5 23.9-54.8 38.7-113.1 45-177.5 2-21.1 1.7-96.7-.5-119-8.4-83.8-28.5-155.1-62.1-220.5-9.7-18.9-20.3-37.3-24-41.5-1.2-1.4-2.8-3.8-3.4-5.3-2.9-6.8-26.2-37.7-42.3-56.2-11-12.7-39.6-40.8-51.6-50.7-20.8-17.3-53.6-40.3-56-39.4-.7.3-1.2.1-1-.5.6-2.5-42-24.4-64.8-33.4C824 2.9 761.1-4.6 690 5.6c-32.6 4.6-65.7 13.3-82.3 21.5l-7.9 3.8-6.8-3.5c-21.6-11-71.2-22-113.9-25.4-12.4-.9-41.7-1.1-50.1-.3m30 140.9c0 .3-5.2 6.1-11.7 12.8-24 25-39.9 47.8-56.6 81.1-26 51.9-39.3 108.7-37.3 159 1.7 41.7 10.6 76.5 28.6 111.2 11.6 22.4 22.8 37.9 41 56.7 37.3 38.7 87.5 64.1 142.7 72.3 16.5 2.4 52.2 2.4 68.8-.1 54.6-8.1 105.2-33.7 142.5-72.2 18-18.5 29.5-34.5 41-56.7 41.1-79.2 38-176.8-8.6-270.1-16.8-33.4-32.6-56.1-56.7-81.2-6.5-6.7-11.7-12.5-11.7-12.8s6.8-.6 15.1-.6c32.9 0 63.1 7.6 97.4 24.4 23.6 11.6 47.6 27.5 65.7 43.3 10 8.7 35.3 34.8 43 44.3 38.9 48.2 65 101.9 80.2 165 8 32.8 11.5 62.1 12.3 100.5 1.3 64.8-6.8 115.7-27.9 175-2.7 7.7-5.8 15.6-6.9 17.6-1 2-1.5 3.9-1.2 4.3.4.4.3 1-.3 1.4-.5.4-4.9 8.6-9.6 18.2-12.6 25.5-26.5 48.4-42.2 69-15 19.8-18.2 23.4-38.4 44.1-8.9 9.1-16.2 17-16.2 17.5s-1.3 1.6-2.9 2.4c-3.7 1.9-24.1 19-24.1 20.2 0 .4-1 1.2-2.2 1.7-1.3.5-7.3 4.5-13.4 8.8-14.3 10.2-29.4 19.7-45.9 28.6-7.1 3.9-14.1 7.7-15.5 8.6s-3.8 2.1-5.5 2.7c-1.6.6-9.7 4.1-18 7.7-42.3 18.4-89 30.4-139 35.9-18.3 2-77.1 1.7-95.4-.5-75.6-9-143.2-32.9-202.6-71.6-6-4-12.2-7.7-13.7-8.4-1.6-.6-2.8-1.4-2.8-1.8 0-.3-5.1-4.5-11.2-9.2-6.2-4.7-15.3-11.9-20.3-16.2-11.4-9.7-36.4-34.5-45.7-45.3-4-4.5-7.5-8.2-8-8.2-.4 0-.8-.4-.8-1 0-.5-3.6-5.5-8.1-11.2-16.6-21.3-31.7-45.5-45.2-72.8-5-10.2-9.5-18.8-10-19.1-.4-.3-.7-1-.5-1.5.1-.5-1.7-5.9-4.1-11.9-17.1-43.1-27.3-88.3-31.1-137.4-1.3-17.3-1.3-55.9 0-73.2 6.8-88.2 35-165.3 84.1-229.9 13.7-18 27.4-32.7 50.7-54.3 2.9-2.7 5.2-5.3 5.2-5.8s.7-.9 1.5-.9 5.3-2.9 9.9-6.5c28.8-22.2 69.8-42.2 101.6-49.4 16.1-3.7 26.9-4.9 43.8-5 8.9-.1 16.2.2 16.2.5m151.7 43.3c10.9 8.8 28.6 26.6 37.9 38.1 30.4 37.7 49.4 79.9 54.9 121.5 1.9 14.5 1.9 38.7 0 52.8-7 52.8-37.1 88.5-82.5 97.9-12.5 2.6-35.5 2.1-47.2-1-35.9-9.7-62.1-36.5-72.7-74.4-7.1-25.3-8.1-60.8-2.4-88.8 8.6-43 30.2-84.1 63.6-121 11.7-12.9 34.7-33 37.8-33 .4 0 5.2 3.5 10.6 7.9"/><path fill="navy" fill-opacity=".1" d="M167.9 117.7c-1.3 1.6-1.2 1.7.4.4s2.1-2.1 1.3-2.1c-.2 0-1 .8-1.7 1.7m863.1-.3c0 .2.8 1 1.8 1.7 1.5 1.3 1.6 1.2.3-.4s-2.1-2.1-2.1-1.3M704.1 371.6c0 1.1.3 1.4.6.6.3-.7.2-1.6-.1-1.9-.3-.4-.6.2-.5 1.3m232.8 467.1c-1.3 1.6-1.2 1.7.4.4.9-.7 1.7-1.5 1.7-1.7 0-.8-.8-.3-2.1 1.3m-25 25c-1.3 1.6-1.2 1.7.4.4s2.1-2.1 1.3-2.1c-.2 0-1 .8-1.7 1.7m142 62c-1.3 1.6-1.2 1.7.4.4.9-.7 1.7-1.5 1.7-1.7 0-.8-.8-.3-2.1 1.3"/><path fill="navy" fill-opacity=".2" d="M1051 137.4c0 .2.8 1 1.8 1.7 1.5 1.3 1.6 1.2.3-.4s-2.1-2.1-2.1-1.3m-905.1 2.3c-1.3 1.6-1.2 1.7.4.4s2.1-2.1 1.3-2.1c-.2 0-1 .8-1.7 1.7m349.4 231.8c0 3.3.2 4.5.4 2.7s.2-4.5 0-6-.4 0-.4 3.3m208.9-3.5c0 1.4.2 1.9.5 1.2.2-.6.2-1.8 0-2.5-.3-.6-.5-.1-.5 1.3m0 7.5c0 1.6.2 2.2.5 1.2.2-.9.2-2.3 0-3-.3-.6-.5.1-.5 1.8m-352 1.5c0 1.4.2 1.9.5 1.2.2-.6.2-1.8 0-2.5-.3-.6-.5-.1-.5 1.3m495 1.5c0 1.6.2 2.2.5 1.2.2-.9.2-2.3 0-3-.3-.6-.5.1-.5 1.8m0 14c0 1.6.2 2.2.5 1.2.2-.9.2-2.3 0-3-.3-.6-.5.1-.5 1.8m-495.1 2.1c0 1.1.3 1.4.6.6.3-.7.2-1.6-.1-1.9-.3-.4-.6.2-.5 1.3M145.3 530c0 4.1.2 5.8.4 3.7.2-2 .2-5.4 0-7.5-.2-2-.4-.3-.4 3.8m909 .5c0 3.8.2 5.3.4 3.2.2-2 .2-5.2 0-7-.2-1.7-.4-.1-.4 3.8M423.5 566c2.7 2.7 5.1 5 5.4 5s-1.7-2.3-4.4-5c-2.7-2.8-5.1-5-5.4-5s1.7 2.2 4.4 5m352 .2-5 5.3 5.3-5c4.8-4.6 5.7-5.5 4.9-5.5-.1 0-2.5 2.4-5.2 5.2m240.4 397.5c-1.3 1.6-1.2 1.7.4.4s2.1-2.1 1.3-2.1c-.2 0-1 .8-1.7 1.7m-421.6 21c3.1.2 8.3.2 11.5 0 3.1-.2.5-.3-5.8-.3s-8.9.1-5.7.3"/><path fill="navy" fill-opacity=".3" d="M162.9 122.7c-1.3 1.6-1.2 1.7.4.4s2.1-2.1 1.3-2.1c-.2 0-1 .8-1.7 1.7m874.6 1.3c1 1.1 2 2 2.3 2s-.3-.9-1.3-2-2-2-2.3-2 .3.9 1.3 2m10.5 10.4c0 .2.8 1 1.8 1.7 1.5 1.3 1.6 1.2.3-.4s-2.1-2.1-2.1-1.3m-899.1 2.3c-1.3 1.6-1.2 1.7.4.4s2.1-2.1 1.3-2.1c-.2 0-1 .8-1.7 1.7m418.5 69.5-1.9 2.3 2.3-1.9c2.1-1.8 2.7-2.6 1.9-2.6-.2 0-1.2 1-2.3 2.2m-72.3 158.4c0 1.1.3 1.4.6.6.3-.7.2-1.6-.1-1.9-.3-.4-.6.2-.5 1.3m209 0c0 1.1.3 1.4.6.6.3-.7.2-1.6-.1-1.9-.3-.4-.6.2-.5 1.3M495.2 379c0 1.4.2 1.9.5 1.2.2-.6.2-1.8 0-2.5-.3-.6-.5-.1-.5 1.3m208.9.6c0 1.1.3 1.4.6.6.3-.7.2-1.6-.1-1.9-.3-.4-.6.2-.5 1.3M352.3 386c0 4.1.2 5.8.4 3.7.2-2 .2-5.4 0-7.5-.2-2-.4-.3-.4 3.8m495-.5c0 2.7.2 3.8.4 2.2.2-1.5.2-3.7 0-5-.2-1.2-.4 0-.4 2.8M145.2 520c0 1.9.2 2.7.5 1.7.2-.9.2-2.5 0-3.5-.3-.9-.5-.1-.5 1.8m909 1c0 1.9.2 2.7.5 1.7.2-.9.2-2.5 0-3.5-.3-.9-.5-.1-.5 1.8m-908.9 19.5c0 2.2.2 3 .4 1.7.2-1.2.2-3 0-4-.3-.9-.5.1-.4 2.3m909 0c0 2.2.2 3 .4 1.7.2-1.2.2-3 0-4-.3-.9-.5.1-.4 2.3"/><path fill="navy" fill-opacity=".4" d="m156 129.7-5.5 5.8 5.8-5.5c3.1-3 5.7-5.6 5.7-5.7 0-.8-1 .1-6 5.4m887.5.3c2.1 2.2 4.1 4 4.4 4s-1.3-1.8-3.4-4-4.1-4-4.4-4 1.3 1.8 3.4 4m-603.6 31.7c-1.3 1.6-1.2 1.7.4.4.9-.7 1.7-1.5 1.7-1.7 0-.8-.8-.3-2.1 1.3m318.1-1.3c0 .2.8 1 1.8 1.7 1.5 1.3 1.6 1.2.3-.4s-2.1-2.1-2.1-1.3M145.1 515.6c0 1.1.3 1.4.6.6.3-.7.2-1.6-.1-1.9-.3-.4-.6.2-.5 1.3m909 1c0 1.1.3 1.4.6.6.3-.7.2-1.6-.1-1.9-.3-.4-.6.2-.5 1.3m-909 29c0 1.1.3 1.4.6.6.3-.7.2-1.6-.1-1.9-.3-.4-.6.2-.5 1.3m438.7 439.1c.6.2 1.8.2 2.5 0 .6-.3.1-.5-1.3-.5s-1.9.2-1.2.5m30 0c.6.2 1.8.2 2.5 0 .6-.3.1-.5-1.3-.5s-1.9.2-1.2.5"/><path fill="navy" fill-opacity=".5" d="M145.1 512.6c0 1.1.3 1.4.6.6.3-.7.2-1.6-.1-1.9-.3-.4-.6.2-.5 1.3m909 1c0 1.1.3 1.4.6.6.3-.7.2-1.6-.1-1.9-.3-.4-.6.2-.5 1.3m0 34c0 1.1.3 1.4.6.6.3-.7.2-1.6-.1-1.9-.3-.4-.6.2-.5 1.3"/><path fill="navy" fill-opacity=".6" d="M145.1 509.6c0 1.1.3 1.4.6.6.3-.7.2-1.6-.1-1.9-.3-.4-.6.2-.5 1.3m909 1c0 1.1.3 1.4.6.6.3-.7.2-1.6-.1-1.9-.3-.4-.6.2-.5 1.3m-909 40c0 1.1.3 1.4.6.6.3-.7.2-1.6-.1-1.9-.3-.4-.6.2-.5 1.3m909 0c0 1.1.3 1.4.6.6.3-.7.2-1.6-.1-1.9-.3-.4-.6.2-.5 1.3M578.8 984.7c.7.3 1.6.2 1.9-.1.4-.3-.2-.6-1.3-.5-1.1 0-1.4.3-.6.6m41 0c.7.3 1.6.2 1.9-.1.4-.3-.2-.6-1.3-.5-1.1 0-1.4.3-.6.6"/><path fill="navy" fill-opacity=".7" d="M140.9 145.7c-1.3 1.6-1.2 1.7.4.4s2.1-2.1 1.3-2.1c-.2 0-1 .8-1.7 1.7m913.2 361.9c0 1.1.3 1.4.6.6.3-.7.2-1.6-.1-1.9-.3-.4-.6.2-.5 1.3m-909 46c0 1.1.3 1.4.6.6.3-.7.2-1.6-.1-1.9-.3-.4-.6.2-.5 1.3"/><path fill="navy" fill-opacity=".8" d="M1029 116.4c0 .2.8 1 1.8 1.7 1.5 1.3 1.6 1.2.3-.4s-2.1-2.1-2.1-1.3m25.1 439.2c0 1.1.3 1.4.6.6.3-.7.2-1.6-.1-1.9-.3-.4-.6.2-.5 1.3"/><path fill="navy" fill-opacity=".9" d="M164.9 121.7c-1.3 1.6-1.2 1.7.4.4s2.1-2.1 1.3-2.1c-.2 0-1 .8-1.7 1.7m-4 4c-1.3 1.6-1.2 1.7.4.4.9-.7 1.7-1.5 1.7-1.7 0-.8-.8-.3-2.1 1.3m884.1 6.7c0 .2.8 1 1.8 1.7 1.5 1.3 1.6 1.2.3-.4s-2.1-2.1-2.1-1.3m-896.1 5.3c-1.3 1.6-1.2 1.7.4.4s2.1-2.1 1.3-2.1c-.2 0-1 .8-1.7 1.7M287 864.4c0 .2.8 1 1.8 1.7 1.5 1.3 1.6 1.2.3-.4s-2.1-2.1-2.1-1.3m623.9 1.3c-1.3 1.6-1.2 1.7.4.4.9-.7 1.7-1.5 1.7-1.7 0-.8-.8-.3-2.1 1.3"/><path fill="navy" d="M285.1 205.2c-1.4 2.3-1.4 2.3.8.4 2.2-2 2.5-2.6 1.3-2.6-.4 0-1.3 1-2.1 2.2m822.9 6.5c0 .6.8 1.7 1.8 2.4 1.6 1.3 1.6 1.3.2-.6-.8-1.1-1.6-2.2-1.7-2.4q-.3-.3-.3.6M41.5 309c-.3.5-.1 1 .4 1 .6 0 1.1-.5 1.1-1 0-.6-.2-1-.4-1-.3 0-.8.4-1.1 1M98 864.5c.7.9 1.5 1.3 1.7 1.1.7-.7-.7-2.6-1.9-2.6-.6 0-.6.6.2 1.5m812.5 2.5c-.3.5-.1 1 .4 1 .6 0 1.1-.5 1.1-1 0-.6-.2-1-.4-1-.3 0-.8.4-1.1 1m-28 23c-.3.5-.2 1 .4 1 .5 0 1.3-.5 1.6-1 .3-.6.2-1-.4-1-.5 0-1.3.4-1.6 1M331 901c0 .5.5 1 1.1 1 .5 0 .7-.5.4-1-.3-.6-.8-1-1.1-1-.2 0-.4.4-.4 1m734.8 7.5c-.4 2-.3 2.3.8 1.4 1.6-1.3 1.9-3.9.5-3.9-.5 0-1.1 1.1-1.3 2.5M805 938c-.9.6-1 1-.3 1 .6 0 1.5-.5 1.8-1 .8-1.2.4-1.2-1.5 0"/><path fill-opacity=".2" d="M759.5 1335.5c0 36.3.1 51 .2 32.7.2-18.4.2-48.1 0-66-.1-18-.2-3-.2 33.3m-667.2 2.2c5.3.2 14.1.2 19.5 0 5.3-.1.9-.3-9.8-.3s-15.1.2-9.7.3m305.5 0c5.7.2 14.7.2 20 0 5.3-.1.7-.3-10.3-.3s-15.4.2-9.7.3m134 0c5.6.2 14.8.2 20.5 0 5.6-.1 1-.3-10.3-.3s-15.9.2-10.2.3m129 0c5.6.2 14.8.2 20.5 0 5.6-.1 1-.3-10.3-.3s-15.9.2-10.2.3m203 0c5.7.2 14.7.2 20 0 5.3-.1.7-.3-10.3-.3s-15.4.2-9.7.3m138.4 0 19.8.3.3 31.8.2 31.7v-64h-20l-20-.1zM509.4 1583c0 18.4.2 26 .3 16.7.2-9.2.2-24.2 0-33.5-.1-9.2-.3-1.6-.3 16.8"/><path fill-opacity=".4" d="M112.8 1269.7c16.7.2 43.7.2 60 0 16.3-.1 2.7-.2-30.3-.2s-46.4.1-29.7.2m235.7 0 78.5.3.3 33.3.2 33.2v-67H270zm181.8 0c42.3.2 111.1.2 153 0 41.9-.1 7.4-.2-76.8-.2-84.1 0-118.4.1-76.2.2m407.4 0 152.3.3.3 65.8.2 65.7v-132h-305zM841.4 1583c0 18.4.2 26 .3 16.7.2-9.2.2-24.2 0-33.5-.1-9.2-.3-1.6-.3 16.8"/><path fill-opacity=".1" d="M269.4 1304c0 19 .2 26.7.3 17.2.2-9.4.2-25 0-34.5-.1-9.4-.3-1.7-.3 17.3m-147.9 139.5c0 58.3.1 82.3.2 53.3.2-28.9.2-76.6 0-106-.1-29.3-.2-5.6-.2 52.7"/><path fill-opacity=".6" d="M82.4 1303.5c0 18.7.2 26.2.3 16.7.2-9.5.2-24.8 0-34-.1-9.2-.3-1.4-.3 17.3m771 66c0 17.6.2 24.7.3 15.7.2-9 .2-23.4 0-32-.1-8.6-.3-1.3-.3 16.3m-771 213c0 18.7.2 26.2.3 16.7.2-9.5.2-24.8 0-34-.1-9.2-.3-1.4-.3 17.3"/><path d="M83 1303.5v33.5h39v213H83v66h156v-66h-36v-65.2c0-35.8.3-64.8.7-64.5.3.4 24.3 44.5 53.2 98l52.6 97.2 38.8.3 38.7.2v-279h40v-67H270v67h40v66.2c-.1 56.7-.3 66-1.4 64.5-.8-1-25.2-45.9-54.1-99.8l-52.7-97.9H83zm371 32v65.5h67v-64h42v213h-53v66h193v-66h-53v-213h41v64h68v-131H454zm332 0v65.5h67v-64h41v213h-52v66h193v-66h-53v-213h41v64h67v-131H786z"/><path fill-opacity=".7" d="M893.5 1443.5c0 58.3.1 82.3.2 53.3.2-28.9.2-76.6 0-106-.1-29.3-.2-5.6-.2 52.7m-190.3 139.2-.2 33.3-96.7.3-96.8.2 96.8.3c77 .1 96.9-.1 97.2-1.1.3-.7.4-15.8.2-33.7l-.2-32.5zm-581.4 34c21.5.2 56.9.2 78.5 0 21.5-.1 3.9-.2-39.3-.2s-60.8.1-39.2.2m206.9 0c10.5.2 28.1.2 39 0 10.9-.1 2.3-.2-19.2-.2-21.4 0-30.4.1-19.8.2m561.6 0c26.9.2 70.5.2 97 0 26.5-.1 4.6-.2-48.8-.2-53.3 0-75 .1-48.2.2"/><path fill-opacity=".3" d="M453.5 1335.5c0 36.3.1 51 .2 32.7.2-18.4.2-48.1 0-66-.1-18-.2-3-.2 33.3"/><path fill-opacity=".5" d="M785.5 1335.5c0 36.3.1 51 .2 32.7.2-18.4.2-48.1 0-66-.1-18-.2-3-.2 33.3m-476 67.5c0 36 .1 50.8.2 32.7.2-18 .2-47.4 0-65.5-.1-18-.2-3.2-.2 32.8m673 40.5c0 58.3.1 82.3.2 53.3.2-28.9.2-76.6 0-106-.1-29.3-.2-5.6-.2 52.7m-779.3 42.2c.2 35.1.4 53.7.5 41.3.7-58.2.7-105 .1-105-.5 0-.7 28.7-.6 63.7m832.2 97.3c0 18.4.2 26 .3 16.7.2-9.2.2-24.2 0-33.5-.1-9.2-.3-1.6-.3 16.8"/><path fill-opacity=".8" d="M650.5 1443v106.5h26.3l26.2.1-26-.3-26-.3-.3-106.3-.2-106.2zm-88.3.2L562 1549l-26.2.3-26.3.2 26.3.3c20.3.1 26.4-.1 26.7-1 .3-.7.4-48.6.3-106.3l-.3-105zM92.8 1549.7c5.7.2 14.7.2 20 0 5.3-.1.7-.3-10.3-.3s-15.4.2-9.7.3m119.4 0c4.8.2 12.9.2 18 0 5.1-.1 1.2-.3-8.7-.3s-14.1.2-9.3.3m642 0c7 .2 18.7.2 26 0 7.3-.1 1.6-.3-12.7-.3s-20.3.2-13.3.3m141.6 0c7.2.2 19.2.2 26.5 0 7.2-.1 1.3-.3-13.3-.3s-20.5.2-13.2.3"/><path fill-opacity=".9" d="M279.8 1337.7c5.6.2 14.8.2 20.5 0 5.6-.1 1-.3-10.3-.3s-15.9.2-10.2.3m107.7 138.8c0 77 .1 108.4.2 69.7.2-38.7.2-101.7 0-140-.1-38.3-.2-6.7-.2 70.3M521.4 1369c0 17.9.2 25.2.3 16.2.2-8.9.2-23.5 0-32.5-.1-8.9-.3-1.6-.3 16.3m-282 214c0 18.4.2 26 .3 16.7.2-9.2.2-24.2 0-33.5-.1-9.2-.3-1.6-.3 16.8"/></svg>